<?xml version="1.0" encoding="UTF-8" standalone="no"?>
<svg width="958px" height="959px" viewBox="0 0 958 959" version="1.1" xmlns="http://www.w3.org/2000/svg" xmlns:xlink="http://www.w3.org/1999/xlink">
    <!-- Generator: Sketch 41 (35326) - http://www.bohemiancoding.com/sketch -->
    <title>Option #1 Copy 11</title>
    <desc>Created with Sketch.</desc>
    <defs></defs>
    <g id="Page-1" stroke="none" stroke-width="1" fill="none" fill-rule="evenodd">
        <g id="Option-#1-Copy-11">
            <g id="prattle_logo_mark-copy-3" transform="translate(772.000000, 33.000000)">
                <g id="Layer_1">
                    <polygon id="Shape" fill="#FFC400" points="1.37323944 7.24011299 0.457746479 71.7429379 34.7887324 98.0048023 324.084507 0.789830508"></polygon>
                    <polygon id="Shape" fill="#FFC400" points="97.9577465 232.539266 52.6408451 193.376836 55.3873239 145.921186 324.084507 0.789830508"></polygon>
                    <polygon id="Shape" fill="#FFB300" points="34.7887324 98.0048023 60.4225352 115.051977 55.3873239 145.921186 324.084507 0.789830508"></polygon>
                    <polygon id="Shape" fill="#FFE57F" points="60.4225352 115.051977 324.084507 0.789830508 55.3873239 145.921186"></polygon>
                </g>
            </g>
            <g id="prattle_logo_mark-copy-6" transform="translate(889.000000, 849.000000)">
                <g id="Layer_1">
                    <polygon id="Shape" fill="#FFC400" points="0.43943662 2.33050847 0.146478873 23.0932203 11.1323944 31.5466102 103.707042 0.254237288"></polygon>
                    <polygon id="Shape" fill="#FFC400" points="31.3464789 74.8516949 16.8450704 62.2457627 17.7239437 46.970339 103.707042 0.254237288"></polygon>
                    <polygon id="Shape" fill="#FFB300" points="11.1323944 31.5466102 19.3352113 37.0338983 17.7239437 46.970339 103.707042 0.254237288"></polygon>
                    <polygon id="Shape" fill="#FFE57F" points="19.3352113 37.0338983 103.707042 0.254237288 17.7239437 46.970339"></polygon>
                </g>
            </g>
            <g id="prattle_logo_mark" transform="translate(85.000000, 57.000000)">
                <g id="Layer_1">
                    <polygon id="Shape" fill="#FFC400" points="0.697183099 3.66666667 0.232394366 36.3333333 17.6619718 49.6333333 164.535211 0.4"></polygon>
                    <polygon id="Shape" fill="#FFC400" points="49.7323944 117.766667 26.7253521 97.9333333 28.1197183 73.9 164.535211 0.4"></polygon>
                    <polygon id="Shape" fill="#FFB300" points="17.6619718 49.6333333 30.6760563 58.2666667 28.1197183 73.9 164.535211 0.4"></polygon>
                    <polygon id="Shape" fill="#FFE57F" points="30.6760563 58.2666667 164.535211 0.4 28.1197183 73.9"></polygon>
                </g>
            </g>
            <g id="prattle_logo_mark-copy-7" transform="translate(365.000000, 157.000000)">
                <g id="Layer_1">
                    <polygon id="Shape" fill="#FFC400" points="0.887323944 4.6920904 0.295774648 46.4943503 22.4788732 63.5138418 209.408451 0.511864407"></polygon>
                    <polygon id="Shape" fill="#FFC400" points="63.2957746 150.701412 34.0140845 125.321469 35.7887324 94.5669492 209.408451 0.511864407"></polygon>
                    <polygon id="Shape" fill="#FFB300" points="22.4788732 63.5138418 39.0422535 74.5615819 35.7887324 94.5669492 209.408451 0.511864407"></polygon>
                    <polygon id="Shape" fill="#FFE57F" points="39.0422535 74.5615819 209.408451 0.511864407 35.7887324 94.5669492"></polygon>
                </g>
            </g>
            <g id="prattle_logo_mark-copy-8" transform="translate(752.000000, 567.000000)">
                <g id="Layer_1">
                    <polygon id="Shape" fill="#FFC400" points="0.663380282 3.51129944 0.221126761 34.7937853 16.8056338 47.530226 156.557746 0.383050847"></polygon>
                    <polygon id="Shape" fill="#FFC400" points="47.3211268 112.776554 25.4295775 93.7836158 26.756338 70.7686441 156.557746 0.383050847"></polygon>
                    <polygon id="Shape" fill="#FFB300" points="16.8056338 47.530226 29.1887324 55.7977401 26.756338 70.7686441 156.557746 0.383050847"></polygon>
                    <polygon id="Shape" fill="#FFE57F" points="29.1887324 55.7977401 156.557746 0.383050847 26.756338 70.7686441"></polygon>
                </g>
            </g>
            <g id="prattle_logo_mark-copy-2" transform="translate(-41.000000, 342.000000)">
                <g id="Layer_1">
                    <polygon id="Shape" fill="#FFC400" points="0.954929577 5.03389831 0.318309859 49.8813559 24.1915493 68.140678 225.36338 0.549152542"></polygon>
                    <polygon id="Shape" fill="#FFC400" points="68.1183099 161.679661 36.6056338 134.450847 38.515493 101.455932 225.36338 0.549152542"></polygon>
                    <polygon id="Shape" fill="#FFB300" points="24.1915493 68.140678 42.0169014 79.9932203 38.515493 101.455932 225.36338 0.549152542"></polygon>
                    <polygon id="Shape" fill="#FFE57F" points="42.0169014 79.9932203 225.36338 0.549152542 38.515493 101.455932"></polygon>
                </g>
            </g>
            <g id="prattle_logo_mark-copy-4" transform="translate(320.000000, 780.000000)">
                <g id="Layer_1">
                    <polygon id="Shape" fill="#FFC400" points="1.69859155 8.98022599 0.566197183 88.9858757 43.0309859 121.559605 400.867606 0.979661017"></polygon>
                    <polygon id="Shape" fill="#FFC400" points="121.166197 288.428531 65.1126761 239.853672 68.5098592 180.992373 400.867606 0.979661017"></polygon>
                    <polygon id="Shape" fill="#FFB300" points="43.0309859 121.559605 74.7380282 142.703955 68.5098592 180.992373 400.867606 0.979661017"></polygon>
                    <polygon id="Shape" fill="#FFE57F" points="74.7380282 142.703955 400.867606 0.979661017 68.5098592 180.992373"></polygon>
                </g>
            </g>
            <g id="prattle_logo_mark-copy-5" transform="translate(47.000000, 690.000000)">
                <g id="Layer_1">
                    <polygon id="Shape" fill="#FFC400" points="0.692957746 3.66666667 0.230985915 36.3333333 17.5549296 49.6333333 163.538028 0.4"></polygon>
                    <polygon id="Shape" fill="#FFC400" points="49.4309859 117.766667 26.5633803 97.9333333 27.9492958 73.9 163.538028 0.4"></polygon>
                    <polygon id="Shape" fill="#FFB300" points="17.5549296 49.6333333 30.4901408 58.2666667 27.9492958 73.9 163.538028 0.4"></polygon>
                    <polygon id="Shape" fill="#FFE57F" points="30.4901408 58.2666667 163.538028 0.4 27.9492958 73.9"></polygon>
                </g>
            </g>
            <g id="prattle_logo" transform="translate(209.000000, 368.000000)">
                <g id="Layer_1">
                    <g id="Group">
                        <path d="M17.7477376,87.8446927 L18.2373303,87.8446927 C26.9276018,76.3441341 39.6570136,70.1044693 54.1,70.1044693 C84.6995475,70.1044693 103.916063,96.4089385 103.916063,125.160335 C103.916063,154.768156 85.0667421,179.849162 53.8552036,179.849162 C39.6570136,179.849162 26.6828054,173.609497 18.2373303,162.353631 L17.7477376,162.353631 L17.7477376,212.637989 L0,212.637989 L0,73.0407821 L17.7477376,73.0407821 L17.7477376,87.8446927 L17.7477376,87.8446927 Z M16.8909502,123.936872 C16.8909502,144.246369 28.8859729,163.577095 51.0400452,163.577095 C73.8061086,163.577095 85.8011312,145.22514 85.8011312,124.181564 C85.8011312,103.382682 72.7045249,86.4988827 50.7952489,86.4988827 C30.1099548,86.4988827 16.8909502,104.483799 16.8909502,123.936872 L16.8909502,123.936872 Z" id="Shape" fill="#37474F"></path>
                        <path d="M136.106787,84.296648 L136.59638,84.296648 C142.838688,76.0994413 148.10181,70.1044693 159.60724,70.1044693 C165.604751,70.1044693 170.500679,72.0620112 175.519005,74.998324 L167.073529,91.1480447 C163.523982,88.7011173 161.076018,86.4988827 156.424887,86.4988827 C136.963575,86.4988827 136.106787,111.457542 136.106787,125.037989 L136.106787,177.035196 L118.35905,177.035196 L118.35905,73.0407821 L136.106787,73.0407821 L136.106787,84.296648 L136.106787,84.296648 Z" id="Shape" fill="#37474F"></path>
                        <path d="M273.927149,177.035196 L256.179412,177.035196 L256.179412,162.598324 L255.812217,162.598324 C246.754751,174.098883 234.514932,179.849162 219.949548,179.849162 C189.35,179.849162 170.133484,153.911732 170.133484,125.160335 C170.133484,95.552514 188.982805,70.1044693 220.194344,70.1044693 C234.392534,70.1044693 247.244344,76.7111732 255.812217,87.8446927 L256.30181,87.8446927 L256.30181,73.0407821 L274.049548,73.0407821 L274.049548,177.035196 L273.927149,177.035196 Z M188.248416,123.936872 C188.248416,144.246369 200.243439,163.577095 222.397511,163.577095 C245.163575,163.577095 257.158597,145.22514 257.158597,124.181564 C257.158597,103.382682 244.061991,86.4988827 222.152715,86.4988827 C201.589819,86.4988827 188.248416,104.483799 188.248416,123.936872 L188.248416,123.936872 Z" id="Shape" fill="#37474F"></path>
                        <polyline id="Shape" fill="#37474F" points="302.690724 73.0407821 302.690724 39.5178771 320.438462 39.5178771 320.438462 72.9184358 339.042986 72.9184358 339.042986 89.3128492 320.438462 89.3128492 320.438462 176.912849 302.690724 176.912849 302.690724 89.3128492"></polyline>
                        <polyline id="Shape" fill="#37474F" points="302.690724 89.4351955 284.086199 89.4351955 284.086199 73.0407821 302.690724 73.0407821"></polyline>
                        <polyline id="Shape" fill="#37474F" points="363.767421 73.0407821 363.767421 39.5178771 381.515158 39.5178771 381.515158 72.9184358 400.119683 72.9184358 400.119683 89.3128492 381.515158 89.3128492 381.515158 176.912849 363.767421 176.912849 363.767421 89.3128492"></polyline>
                        <polyline id="Shape" fill="#37474F" points="363.767421 89.4351955 345.162896 89.4351955 345.162896 73.0407821 363.767421 73.0407821"></polyline>
                        <polygon id="Shape" fill="#37474F" points="428.393665 177.035196 410.645928 177.035196 410.645928 39.5178771 428.393665 39.5178771"></polygon>
                        <path d="M458.993213,128.830726 C459.238009,148.039106 472.946606,163.577095 493.142308,163.577095 C508.197285,163.577095 517.98914,154.523464 524.843439,142.16648 L539.898416,150.853073 C529.984163,169.449721 513.093213,180.093855 491.795928,180.093855 C460.829186,180.093855 440.878281,156.358659 440.878281,126.506145 C440.878281,95.7972067 458.748416,70.349162 491.306335,70.349162 C524.721041,70.349162 542.468778,97.9994413 540.632805,128.953073 L458.993213,128.953073 L458.993213,128.830726 Z M522.028281,113.782123 C519.580317,98.7335196 506.973303,86.6212291 491.428733,86.6212291 C476.128959,86.6212291 461.930769,98.7335196 459.727602,113.782123 L522.028281,113.782123 L522.028281,113.782123 Z" id="Shape" fill="#37474F"></path>
                        <g transform="translate(35.495475, 189.636872)" id="Shape" fill="#37474F">
                            <path d="M1.71357466,24.4692737 L3.6719457,24.4692737 C4.03914027,25.9374302 5.75271493,26.7938547 8.20067873,26.7938547 C11.1382353,26.7938547 13.0966063,25.3256983 13.0966063,22.8787709 L13.0966063,19.6977654 L13.0966063,19.6977654 C12.239819,21.7776536 10.1590498,23.1234637 7.58868778,23.1234637 C3.54954751,23.1234637 0.85678733,19.8201117 0.85678733,15.0486034 C0.85678733,10.1547486 3.54954751,6.97374302 7.58868778,6.97374302 C10.1590498,6.97374302 12.239819,8.31955307 13.0966063,10.3994413 L13.0966063,10.3994413 L13.0966063,7.09608939 L14.9325792,7.09608939 L14.9325792,22.7564246 C14.9325792,26.4268156 12.239819,28.6290503 7.95588235,28.6290503 C4.52873303,28.6290503 2.08076923,26.9162011 1.71357466,24.4692737 L1.71357466,24.4692737 Z M13.0966063,15.0486034 C13.0966063,11.2558659 11.0158371,8.68659218 7.95588235,8.68659218 C4.8959276,8.68659218 2.93755656,11.2558659 2.93755656,15.0486034 C2.93755656,18.8413408 5.01832579,21.4106145 7.95588235,21.4106145 C11.0158371,21.4106145 13.0966063,18.8413408 13.0966063,15.0486034 L13.0966063,15.0486034 Z"></path>
                            <path d="M31.578733,18.596648 C31.0891403,21.2882682 28.5187783,23.2458101 25.091629,23.2458101 C20.6852941,23.2458101 17.8701357,20.1871508 17.8701357,15.1709497 C17.8701357,10.277095 20.6852941,6.97374302 24.9692308,6.97374302 C29.1307692,6.97374302 31.8235294,10.0324022 31.8235294,14.6815642 L31.8235294,15.5379888 L19.8285068,15.5379888 L19.8285068,15.6603352 C19.8285068,19.2083799 21.909276,21.5329609 25.091629,21.5329609 C27.5395928,21.5329609 29.1307692,20.3094972 29.620362,18.596648 L31.578733,18.596648 L31.578733,18.596648 Z M19.8285068,13.947486 L29.7427602,13.947486 C29.7427602,10.7664804 27.7843891,8.68659218 24.8468326,8.68659218 C22.0316742,8.68659218 19.950905,10.7664804 19.8285068,13.947486 L19.8285068,13.947486 Z"></path>
                            <path d="M37.331448,3.30335196 L37.331448,7.09608939 L40.3914027,7.09608939 L40.3914027,8.68659218 L37.2090498,8.68659218 L37.2090498,18.9636872 C37.2090498,20.6765363 37.8210407,21.2882682 39.289819,21.2882682 L40.3914027,21.2882682 L40.3914027,23.0011173 C40.1466063,23.0011173 39.289819,23.1234637 38.9226244,23.1234637 C36.3522624,23.1234637 35.2506787,22.0223464 35.2506787,19.0860335 L35.2506787,8.68659218 L33.0475113,8.68659218 L33.0475113,7.09608939 L35.3730769,7.09608939 L35.3730769,3.30335196 L37.331448,3.30335196 L37.331448,3.30335196 Z"></path>
                            <path d="M46.1441176,3.30335196 L46.1441176,7.09608939 L49.3264706,7.09608939 L49.3264706,8.68659218 L46.1441176,8.68659218 L46.1441176,18.9636872 C46.1441176,20.6765363 46.7561086,21.2882682 48.2248869,21.2882682 L49.3264706,21.2882682 L49.3264706,23.0011173 C49.0816742,23.0011173 48.2248869,23.1234637 47.8576923,23.1234637 C45.2873303,23.1234637 44.1857466,22.0223464 44.1857466,19.0860335 L44.1857466,8.68659218 L41.860181,8.68659218 L41.860181,7.09608939 L44.1857466,7.09608939 L44.1857466,3.30335196 L46.1441176,3.30335196 L46.1441176,3.30335196 Z"></path>
                            <path d="M51.8968326,2.69162011 C51.8968326,1.9575419 52.5088235,1.34581006 53.2432127,1.34581006 C53.9776018,1.34581006 54.5895928,1.9575419 54.5895928,2.69162011 C54.5895928,3.42569832 53.9776018,4.03743017 53.2432127,4.03743017 C52.5088235,4.03743017 51.8968326,3.42569832 51.8968326,2.69162011 L51.8968326,2.69162011 Z M52.2640271,7.09608939 L54.2223982,7.09608939 L54.2223982,23.0011173 L52.2640271,23.0011173 L52.2640271,7.09608939 L52.2640271,7.09608939 Z"></path>
                            <path d="M57.8943439,7.09608939 L59.7303167,7.09608939 L59.7303167,10.0324022 L59.7303167,10.0324022 C60.5871041,8.07486034 62.4230769,6.85139665 64.9934389,6.85139665 C68.5429864,6.85139665 70.6237557,9.05363128 70.6237557,12.7240223 L70.6237557,23.0011173 L68.6653846,23.0011173 L68.6653846,13.0910615 C68.6653846,10.277095 67.0742081,8.68659218 64.381448,8.68659218 C61.5662896,8.68659218 59.7303167,10.7664804 59.7303167,13.7027933 L59.7303167,23.0011173 L57.7719457,23.0011173 L57.7719457,7.09608939 L57.8943439,7.09608939 Z"></path>
                            <path d="M74.050905,24.4692737 L76.1316742,24.4692737 C76.4988688,25.9374302 78.2124434,26.7938547 80.6604072,26.7938547 C83.5979638,26.7938547 85.5563348,25.3256983 85.5563348,22.8787709 L85.5563348,19.6977654 L85.5563348,19.6977654 C84.6995475,21.7776536 82.6187783,23.1234637 80.0484163,23.1234637 C76.009276,23.1234637 73.3165158,19.8201117 73.3165158,15.0486034 C73.3165158,10.1547486 76.009276,6.97374302 80.0484163,6.97374302 C82.6187783,6.97374302 84.6995475,8.31955307 85.5563348,10.3994413 L85.5563348,10.3994413 L85.5563348,7.09608939 L87.3923077,7.09608939 L87.3923077,22.7564246 C87.3923077,26.4268156 84.6995475,28.6290503 80.4156109,28.6290503 C76.9884615,28.6290503 74.4180995,26.9162011 74.050905,24.4692737 L74.050905,24.4692737 Z M85.5563348,15.0486034 C85.5563348,11.2558659 83.4755656,8.68659218 80.4156109,8.68659218 C77.3556561,8.68659218 75.3972851,11.2558659 75.3972851,15.0486034 C75.3972851,18.8413408 77.4780543,21.4106145 80.4156109,21.4106145 C83.4755656,21.4106145 85.5563348,18.8413408 85.5563348,15.0486034 L85.5563348,15.0486034 Z"></path>
                            <path d="M100.488914,3.30335196 L100.488914,7.09608939 L103.671267,7.09608939 L103.671267,8.68659218 L100.488914,8.68659218 L100.488914,18.9636872 C100.488914,20.6765363 101.100905,21.2882682 102.569683,21.2882682 L103.671267,21.2882682 L103.671267,23.0011173 C103.426471,23.0011173 102.569683,23.1234637 102.202489,23.1234637 C99.6321267,23.1234637 98.530543,22.0223464 98.530543,19.0860335 L98.530543,8.68659218 L96.2049774,8.68659218 L96.2049774,7.09608939 L98.530543,7.09608939 L98.530543,3.30335196 L100.488914,3.30335196 L100.488914,3.30335196 Z"></path>
                            <path d="M105.140045,15.0486034 C105.140045,10.0324022 107.955204,6.97374302 112.361538,6.97374302 C116.767873,6.97374302 119.583032,10.1547486 119.583032,15.0486034 C119.583032,20.0648045 116.767873,23.2458101 112.361538,23.2458101 C108.077602,23.2458101 105.140045,20.0648045 105.140045,15.0486034 L105.140045,15.0486034 Z M117.624661,15.0486034 C117.624661,11.1335196 115.66629,8.68659218 112.361538,8.68659218 C109.179186,8.68659218 107.098416,11.1335196 107.098416,15.0486034 C107.098416,18.9636872 109.056787,21.4106145 112.361538,21.4106145 C115.66629,21.5329609 117.624661,19.0860335 117.624661,15.0486034 L117.624661,15.0486034 Z"></path>
                            <path d="M131.945249,3.30335196 L131.945249,7.09608939 L135.127602,7.09608939 L135.127602,8.68659218 L131.945249,8.68659218 L131.945249,18.9636872 C131.945249,20.6765363 132.55724,21.2882682 134.026018,21.2882682 L135.127602,21.2882682 L135.127602,23.0011173 C134.882805,23.0011173 134.026018,23.1234637 133.658824,23.1234637 C131.088462,23.1234637 129.986878,22.0223464 129.986878,19.0860335 L129.986878,8.68659218 L127.661312,8.68659218 L127.661312,7.09608939 L129.986878,7.09608939 L129.986878,3.30335196 L131.945249,3.30335196 L131.945249,3.30335196 Z"></path>
                            <path d="M138.065158,0.856424581 L140.023529,0.856424581 L140.023529,10.1547486 L140.023529,10.1547486 C140.880317,8.1972067 142.71629,6.97374302 145.286652,6.97374302 C148.713801,6.97374302 150.916968,9.29832402 150.916968,12.8463687 L150.916968,23.0011173 L148.958597,23.0011173 L148.958597,13.0910615 C148.958597,10.277095 147.367421,8.68659218 144.674661,8.68659218 C141.737104,8.68659218 139.901131,10.7664804 139.901131,13.7027933 L139.901131,23.0011173 L137.94276,23.0011173 L137.94276,0.856424581 L138.065158,0.856424581 Z"></path>
                            <path d="M167.440724,18.596648 C166.951131,21.2882682 164.380769,23.2458101 160.95362,23.2458101 C156.547285,23.2458101 153.732127,20.1871508 153.732127,15.1709497 C153.732127,10.277095 156.547285,6.97374302 160.831222,6.97374302 C164.99276,6.97374302 167.68552,10.0324022 167.68552,14.6815642 L167.68552,15.5379888 L155.690498,15.5379888 L155.690498,15.6603352 C155.690498,19.2083799 157.771267,21.5329609 160.95362,21.5329609 C163.401584,21.5329609 164.99276,20.3094972 165.482353,18.596648 L167.440724,18.596648 L167.440724,18.596648 Z M155.690498,13.947486 L165.604751,13.947486 C165.604751,10.7664804 163.64638,8.68659218 160.708824,8.68659218 C157.893665,8.68659218 155.812896,10.7664804 155.690498,13.947486 L155.690498,13.947486 Z"></path>
                            <path d="M191.185973,15.0486034 C191.185973,19.9424581 188.493213,23.2458101 184.454072,23.2458101 C181.88371,23.2458101 179.925339,21.9 179.068552,19.8201117 L179.068552,19.8201117 L179.068552,28.3843575 L177.110181,28.3843575 L177.110181,7.21843575 L178.946154,7.21843575 L178.946154,10.5217877 L178.946154,10.5217877 C179.802941,8.44189944 181.88371,7.09608939 184.454072,7.09608939 C188.370814,6.97374302 191.185973,10.277095 191.185973,15.0486034 L191.185973,15.0486034 Z M189.227602,15.0486034 C189.227602,11.2558659 187.146833,8.68659218 184.086878,8.68659218 C181.026923,8.68659218 178.946154,11.2558659 178.946154,15.0486034 C178.946154,18.8413408 181.026923,21.4106145 184.086878,21.4106145 C187.146833,21.5329609 189.227602,18.9636872 189.227602,15.0486034 L189.227602,15.0486034 Z"></path>
                            <path d="M193.144344,15.0486034 C193.144344,10.0324022 195.959502,6.97374302 200.365837,6.97374302 C204.772172,6.97374302 207.58733,10.1547486 207.58733,15.0486034 C207.58733,20.0648045 204.772172,23.2458101 200.365837,23.2458101 C195.959502,23.2458101 193.144344,20.0648045 193.144344,15.0486034 L193.144344,15.0486034 Z M205.628959,15.0486034 C205.628959,11.1335196 203.670588,8.68659218 200.365837,8.68659218 C197.183484,8.68659218 195.102715,11.1335196 195.102715,15.0486034 C195.102715,18.9636872 197.061086,21.4106145 200.365837,21.4106145 C203.54819,21.5329609 205.628959,19.0860335 205.628959,15.0486034 L205.628959,15.0486034 Z"></path>
                            <path d="M210.035294,2.69162011 C210.035294,1.9575419 210.647285,1.34581006 211.381674,1.34581006 C212.116063,1.34581006 212.728054,1.9575419 212.728054,2.69162011 C212.728054,3.42569832 212.116063,4.03743017 211.381674,4.03743017 C210.647285,4.03743017 210.035294,3.42569832 210.035294,2.69162011 L210.035294,2.69162011 Z M210.402489,7.09608939 L212.36086,7.09608939 L212.36086,23.0011173 L210.402489,23.0011173 L210.402489,7.09608939 L210.402489,7.09608939 Z"></path>
                            <path d="M216.032805,7.09608939 L217.868778,7.09608939 L217.868778,10.0324022 L217.868778,10.0324022 C218.725566,8.07486034 220.561538,6.85139665 223.1319,6.85139665 C226.681448,6.85139665 228.762217,9.05363128 228.762217,12.7240223 L228.762217,23.0011173 L226.803846,23.0011173 L226.803846,13.0910615 C226.803846,10.277095 225.21267,8.68659218 222.51991,8.68659218 C219.704751,8.68659218 217.868778,10.7664804 217.868778,13.7027933 L217.868778,23.0011173 L215.910407,23.0011173 L215.910407,7.09608939 L216.032805,7.09608939 Z"></path>
                            <path d="M235.004525,3.30335196 L235.004525,7.09608939 L238.186878,7.09608939 L238.186878,8.68659218 L235.004525,8.68659218 L235.004525,18.9636872 C235.004525,20.6765363 235.616516,21.2882682 237.085294,21.2882682 L238.186878,21.2882682 L238.186878,23.0011173 C237.942081,23.0011173 237.085294,23.1234637 236.7181,23.1234637 C234.147738,23.1234637 233.046154,22.0223464 233.046154,19.0860335 L233.046154,8.68659218 L230.720588,8.68659218 L230.720588,7.09608939 L233.046154,7.09608939 L233.046154,3.30335196 L235.004525,3.30335196 L235.004525,3.30335196 Z"></path>
                            <path d="M241.736425,21.7776536 C241.736425,20.9212291 242.348416,20.4318436 243.082805,20.4318436 C243.939593,20.4318436 244.429186,21.0435754 244.429186,21.7776536 C244.429186,22.5117318 243.817195,23.1234637 243.082805,23.1234637 C242.348416,23.2458101 241.736425,22.6340782 241.736425,21.7776536 L241.736425,21.7776536 Z"></path>
                        </g>
                        <polygon id="Shape" fill="#FFC400" points="435.003167 2.44692737 434.758371 19.575419 443.815837 26.549162 521.293891 0.734078212"></polygon>
                        <polygon id="Shape" fill="#FFC400" points="460.829186 62.2743017 448.711765 51.8748603 449.446154 39.3955307 521.293891 0.734078212"></polygon>
                        <polygon id="Shape" fill="#FFB300" points="443.815837 26.549162 450.792534 31.0759777 449.446154 39.3955307 521.293891 0.734078212"></polygon>
                        <polygon id="Shape" fill="#FFE57F" points="450.792534 31.0759777 521.293891 0.734078212 449.446154 39.3955307"></polygon>
                    </g>
                </g>
            </g>
        </g>
    </g>
</svg>